#N canvas 764 178 450 441 10;
#X obj 89 54 tgl 15 0 empty empty empty 17 7 0 10 -262144 -1 -1 0 1
;
#X msg 89 76 \; pd dsp \$1;
#X floatatom 53 77 5 0 0 0 - - -;
#X msg 318 112 open chiraw_wav.wav;
#X msg 235 143 start;
#X msg 279 143 stop;
#X obj 357 219 bng 15 250 50 0 empty empty empty 17 7 0 10 -262144
-1 -1;
#X obj 318 181 readsf~;
#X obj 318 220 dac~;
#X obj 269 222 env~;
#X obj 270 278 vu 15 120 empty empty -1 -8 0 10 -66577 -1 1 0;
#X obj 269 247 - 100;
#X obj 276 33 bng 15 250 50 0 empty empty empty 17 7 0 10 -262144 -1
-1;
#X connect 0 0 1 0;
#X connect 0 0 2 0;
#X connect 3 0 7 0;
#X connect 4 0 7 0;
#X connect 5 0 7 0;
#X connect 7 0 8 0;
#X connect 7 0 9 0;
#X connect 7 1 6 0;
#X connect 9 0 11 0;
#X connect 11 0 10 0;
#X connect 12 0 5 0;
